<svg width="255" height="256" viewBox="0 0 255 256" fill="none" xmlns="http://www.w3.org/2000/svg">
<circle cx="127.565" cy="128" r="122.975" fill="#0A1826" stroke="white" stroke-width="8.92"/>
<path d="M75.2536 159.184C69.1343 159.184 64.0678 156.717 60.0541 151.782C56.0404 146.781 54.0336 140.267 54.0336 132.24C54.0336 124.212 55.4153 116.909 58.1789 110.329C60.9424 103.683 64.8903 98.2879 70.0226 94.1426C75.1549 89.9973 80.6162 87.9247 86.4064 87.9247C92.2625 87.9247 96.9671 89.2406 100.52 91.8726C104.139 94.5045 105.949 97.6628 105.949 101.348C105.949 104.966 104.863 108.059 102.692 110.625C100.586 110.625 98.2172 110.165 95.5853 109.243C92.9534 108.322 90.9794 107.204 89.6634 105.888L91.5387 95.9192C89.9595 94.9322 87.8869 94.4387 85.3207 94.4387C81.307 94.4387 77.7539 97.8931 74.6614 104.802C71.5689 111.645 70.0226 120.1 70.0226 130.167C70.0226 136.813 71.1083 141.649 73.2796 144.676C75.5168 147.637 78.2145 149.117 81.3728 149.117C86.5709 149.117 91.5716 146.683 96.3749 141.814L100.421 145.465C99.6977 146.518 98.3817 147.966 96.4736 149.808C94.5654 151.65 92.6902 153.197 90.8478 154.447C89.0055 155.631 86.6696 156.717 83.8403 157.704C81.0109 158.691 78.1487 159.184 75.2536 159.184ZM155.79 149.907C156.58 149.907 157.961 149.315 159.935 148.13L160.922 147.538L163.39 151.19C158.06 156.322 152.928 158.888 147.993 158.888C143.058 158.888 138.814 156.454 135.261 151.585C129.405 156.585 122.825 159.086 115.521 159.086C109.797 159.086 105.224 157.638 101.802 154.743C98.4468 151.782 96.7689 147.735 96.7689 142.603C96.7689 133.194 102.921 125.199 115.225 118.62C112.396 113.158 110.981 108.487 110.981 104.605C110.981 99.3407 112.89 95.2612 116.706 92.366C120.522 89.4051 125.029 87.9247 130.227 87.9247C135.425 87.9247 139.242 89.0432 141.676 91.2804C144.177 93.4517 145.427 96.0179 145.427 98.9788C145.427 104.506 140.558 110.625 130.82 117.337C133.846 123.127 137.268 128.884 141.084 134.609C142.598 132.569 144.242 129.937 146.019 126.713C147.861 123.423 148.947 121.515 149.276 120.988C152.895 121.515 155.198 122.633 156.185 124.344C155.461 125.265 153.849 127.601 151.349 131.352C148.914 135.102 146.907 137.964 145.328 139.938C150.526 146.584 154.014 149.907 155.79 149.907ZM110.784 140.234C110.784 143.853 111.606 146.617 113.251 148.525C114.896 150.367 116.903 151.289 119.272 151.289C121.641 151.289 123.713 150.861 125.49 150.005C127.266 149.15 128.582 148.295 129.438 147.439L130.721 146.156C124.733 136.681 120.522 129.411 118.088 124.344C113.219 128.226 110.784 133.523 110.784 140.234ZM134.471 105.69C135.129 104.901 135.689 103.979 136.149 102.927C136.61 101.874 136.84 100.722 136.84 99.4723C136.84 98.1563 136.281 97.0048 135.162 96.0179C134.11 95.0309 132.596 94.5374 130.622 94.5374C128.648 94.5374 126.872 95.0967 125.293 96.2153C123.779 97.268 123.022 99.0446 123.022 101.545C123.022 103.979 124.437 107.368 127.266 111.711C128.188 111.053 129.043 110.461 129.833 109.934C130.622 109.408 131.445 108.75 132.3 107.96C133.155 107.171 133.879 106.414 134.471 105.69ZM174.697 88.4181L194.042 89.0103L204.207 88.8129C204.405 89.7999 204.504 91.1159 204.504 92.7608C204.504 94.4058 204.24 95.5902 203.714 96.314C203.253 97.0377 202.431 97.3996 201.247 97.3996C200.062 97.3996 197.529 97.2351 193.647 96.9061C189.831 96.5771 187.001 96.4127 185.159 96.4127L181.606 96.61C181.343 99.1104 179.763 107.105 176.868 120.594C181.869 120.133 186.047 119.903 189.403 119.903C192.759 119.903 195.358 120.166 197.2 120.692C197.068 123.456 196.476 125.825 195.423 127.799C192.594 127.206 189.238 126.91 185.356 126.91C181.474 126.91 178.184 127.108 175.486 127.502C173.052 139.412 171.835 148.459 171.835 154.644V156.322C169.466 157.638 164.465 158.296 156.833 158.296H155.846C155.846 153.822 157.359 144.511 160.386 130.365C163.478 116.218 165.354 106.052 166.011 99.8671C166.011 98.8143 165.682 97.5641 165.025 96.1166C164.367 94.6032 163.676 93.3859 162.952 92.4647L161.965 91.083L162.261 89.6025C165.814 88.8787 169.959 88.4839 174.697 88.4181Z" fill="white"/>
</svg>
